<svg id="Group_282" data-name="Group 282" xmlns="http://www.w3.org/2000/svg" width="72.307" height="72.307" viewBox="0 0 72.307 72.307">
  <path id="Path_695" data-name="Path 695" d="M36.153,0A36.153,36.153,0,1,0,72.307,36.153,36.2,36.2,0,0,0,36.153,0ZM4.634,38.413h9.958A56.962,56.962,0,0,0,16.66,51.97H8.8A31.333,31.333,0,0,1,4.634,38.413Zm33.778-22.6V4.842c4.23,1.089,8.022,5.143,10.715,10.975Zm12.455,4.519A51.45,51.45,0,0,1,53.2,33.894H38.413V20.336ZM33.894,4.842V15.817H23.179C25.872,9.985,29.664,5.931,33.894,4.842Zm0,15.494V33.894H19.109a51.358,51.358,0,0,1,2.33-13.557Zm-19.3,13.557H4.634A31.365,31.365,0,0,1,8.8,20.336H16.66A56.962,56.962,0,0,0,14.592,33.894Zm4.517,4.519H33.894V51.97H21.439A51.358,51.358,0,0,1,19.109,38.413ZM33.894,56.49V67.464c-4.23-1.087-8.022-5.141-10.715-10.975Zm4.519,10.975V56.49H49.128C46.434,62.322,42.643,66.375,38.413,67.464Zm0-15.494V38.413H53.2a51.359,51.359,0,0,1-2.33,13.557Zm19.3-13.557h9.958A31.366,31.366,0,0,1,63.506,51.97H55.647A56.963,56.963,0,0,0,57.714,38.413Zm0-4.519a56.963,56.963,0,0,0-2.068-13.557h7.859a31.366,31.366,0,0,1,4.167,13.557Zm2.635-18.077H54.14a34.46,34.46,0,0,0-4.691-8.329A31.763,31.763,0,0,1,60.349,15.817ZM22.858,7.488a34.461,34.461,0,0,0-4.691,8.329H11.958A31.763,31.763,0,0,1,22.858,7.488Zm-10.9,49h6.209a34.461,34.461,0,0,0,4.691,8.329A31.763,31.763,0,0,1,11.958,56.49Zm37.491,8.329A34.385,34.385,0,0,0,54.14,56.49h6.209A31.763,31.763,0,0,1,49.449,64.818Z" fill="#c6fb50"/>
</svg>
